<?xml version="1.0" encoding="UTF-8"?>
<svg xmlns="http://www.w3.org/2000/svg" xmlns:xlink="http://www.w3.org/1999/xlink" width="20px" height="20px" viewBox="0 0 20 20" version="1.1">
<g id="surface1">
<path style=" stroke:none;fill-rule:nonzero;fill:rgb(0%,0%,0%);fill-opacity:1;" d="M 0 10.007812 L 0 20.015625 L 20 20.015625 L 20 0 L 0 0 Z M 8.664062 2.492188 C 9.261719 2.824219 9.804688 3.148438 9.867188 3.210938 C 9.976562 3.308594 9.992188 3.640625 9.992188 5.117188 C 9.992188 6.101562 10.007812 6.914062 10.015625 6.929688 C 10.03125 6.9375 10.214844 6.851562 10.410156 6.734375 C 10.613281 6.613281 11.351562 6.195312 12.066406 5.800781 L 13.34375 5.078125 L 14.582031 5.757812 L 15.820312 6.433594 L 15.820312 9.097656 L 15.515625 9.28125 C 15.230469 9.460938 14.515625 9.859375 13.050781 10.679688 C 12.714844 10.863281 12.476562 11.042969 12.515625 11.074219 C 12.550781 11.109375 13.285156 11.527344 14.140625 11.992188 C 15 12.46875 15.722656 12.886719 15.753906 12.933594 C 15.796875 12.976562 15.8125 13.601562 15.796875 14.3125 L 15.777344 15.617188 L 14.632812 16.265625 C 14 16.628906 13.425781 16.921875 13.359375 16.921875 C 13.296875 16.929688 12.523438 16.535156 11.648438 16.058594 C 10.777344 15.578125 10.03125 15.191406 9.984375 15.191406 C 9.941406 15.191406 9.917969 15.253906 9.925781 15.324219 C 9.933594 15.402344 9.933594 15.839844 9.925781 16.296875 L 9.917969 17.136719 L 8.917969 17.699219 C 7.367188 18.566406 7.65625 18.558594 6.277344 17.800781 L 5.082031 17.152344 L 5.097656 10.191406 L 5.121094 3.21875 L 6.269531 2.570312 C 6.902344 2.207031 7.449219 1.90625 7.5 1.90625 C 7.539062 1.898438 8.066406 2.167969 8.664062 2.492188 Z M 8.664062 2.492188 "/>
<path style=" stroke:none;fill-rule:nonzero;fill:rgb(0%,0%,0%);fill-opacity:1;" d="M 6.394531 3.195312 L 5.695312 3.609375 L 5.671875 9.992188 C 5.664062 13.84375 5.6875 16.375 5.730469 16.375 C 5.769531 16.375 6.113281 16.203125 6.492188 15.996094 L 7.171875 15.617188 L 7.195312 13.234375 L 7.214844 10.855469 L 8.796875 9.984375 C 9.65625 9.5 11.015625 8.75 11.804688 8.316406 C 12.589844 7.871094 13.285156 7.515625 13.351562 7.515625 C 13.417969 7.515625 13.84375 7.730469 14.3125 7.984375 L 15.164062 8.457031 L 15.164062 6.765625 L 14.261719 6.265625 C 13.46875 5.824219 13.34375 5.773438 13.179688 5.863281 C 13.015625 5.949219 11.121094 6.976562 8.238281 8.558594 L 7.253906 9.097656 L 7.230469 5.933594 C 7.222656 4.191406 7.179688 2.769531 7.148438 2.777344 C 7.113281 2.777344 6.777344 2.964844 6.394531 3.195312 Z M 6.394531 3.195312 "/>
<path style=" stroke:none;fill-rule:nonzero;fill:rgb(0%,0%,0%);fill-opacity:1;" d="M 7.867188 2.824219 C 7.867188 2.855469 7.859375 4.074219 7.84375 5.515625 C 7.828125 6.960938 7.835938 8.148438 7.859375 8.148438 C 7.878906 8.148438 8.222656 7.964844 8.621094 7.738281 L 9.34375 7.324219 L 9.34375 3.574219 L 9.082031 3.417969 C 8.351562 3.007812 7.867188 2.761719 7.867188 2.824219 Z M 7.867188 2.824219 "/>
<path style=" stroke:none;fill-rule:nonzero;fill:rgb(0%,0%,0%);fill-opacity:1;" d="M 12.785156 8.449219 C 12.492188 8.625 11.246094 9.320312 10.023438 10 L 7.785156 11.25 L 7.785156 15.964844 L 6.96875 16.417969 C 6.515625 16.667969 6.132812 16.898438 6.105469 16.929688 C 6.082031 16.960938 6.394531 17.175781 6.796875 17.398438 L 7.523438 17.800781 L 8.433594 17.285156 L 9.34375 16.765625 L 9.34375 11.984375 L 9.613281 11.835938 C 10.230469 11.496094 12.417969 10.300781 13.441406 9.746094 C 14.050781 9.421875 14.613281 9.105469 14.695312 9.058594 C 14.828125 8.972656 14.753906 8.917969 14.097656 8.550781 C 13.695312 8.332031 13.351562 8.148438 13.34375 8.148438 C 13.328125 8.148438 13.082031 8.285156 12.785156 8.449219 Z M 12.785156 8.449219 "/>
<path style=" stroke:none;fill-rule:nonzero;fill:rgb(0%,0%,0%);fill-opacity:1;" d="M 11.039062 11.804688 C 10.46875 12.128906 10.34375 12.230469 10.425781 12.300781 C 10.558594 12.414062 15.03125 14.875 15.105469 14.875 C 15.140625 14.875 15.164062 14.507812 15.164062 14.058594 C 15.164062 13.164062 15.222656 13.265625 14.46875 12.855469 C 14.246094 12.738281 13.550781 12.359375 12.925781 12.015625 C 12.3125 11.667969 11.796875 11.390625 11.777344 11.390625 C 11.769531 11.390625 11.433594 11.582031 11.039062 11.804688 Z M 11.039062 11.804688 "/>
<path style=" stroke:none;fill-rule:nonzero;fill:rgb(0%,0%,0%);fill-opacity:1;" d="M 9.976562 12.871094 C 9.960938 12.902344 9.941406 13.273438 9.949219 13.6875 L 9.960938 14.4375 L 11.65625 15.371094 L 13.351562 16.3125 L 14.097656 15.878906 L 14.84375 15.441406 L 12.492188 14.152344 C 9.820312 12.683594 10.023438 12.785156 9.976562 12.871094 Z M 9.976562 12.871094 "/>
</g>
</svg>
