<?xml version="1.0"?>
<svg version="1.1" xmlns="http://www.w3.org/2000/svg" width="214px" height="55px" style=""><path fill="#0a2e47" d="M16.936,42.783c0,0.232-0.174,0.377-0.464,0.377l-2.9,0c-0.696,0-1.015-0.232-1.392-0.725l-6.264-8.033l-0.058,0l0,8.033c0,0.522-0.203,0.725-0.696,0.725l-2.32,0c-0.522,0-0.725-0.203-0.725-0.725l0-18.647c0-0.493,0.261-0.696,0.725-0.696l2.32,0c0.464,0,0.696,0.174,0.696,0.696l0,8.207l0.058,0l5.974-8.381c0.261-0.348,0.609-0.522,1.073-0.522l2.32,0c0.29,0,0.464,0.174,0.464,0.377c0,0.116-0.029,0.232-0.116,0.348l-6.67,8.961l7.714,9.483c0.145,0.174,0.261,0.377,0.261,0.522z M34.4955,42.609c0,0.348-0.232,0.551-0.58,0.551l-1.392,0c-1.508,0-2.175-0.725-2.378-1.711l-0.058,0c-0.725,1.073-2.61,2.059-4.205,2.059c-4.089,0-5.945-3.364-5.945-7.134c0-5.017,3.016-7.656,6.264-7.656c1.537,0,2.987,0.696,3.712,1.682l0.058-0.783c0.029-0.319,0.261-0.522,0.609-0.522l2.03,0c0.377,0,0.609,0.203,0.609,0.638l0,10.063c0,0.406,0.058,0.696,0.174,0.841c0.087,0.087,0.203,0.116,0.348,0.116l0.232,0c0.348,0,0.522,0.116,0.522,0.493l0,1.363z M29.7105,38.665l0-5.597c-0.58-0.841-1.769-1.479-2.871-1.479c-1.769,0-3.277,1.508-3.277,4.553c0,2.436,0.928,4.495,3.074,4.495c1.421,0,2.639-1.073,3.074-1.972z M51.997,36.142c0,4.002-2.059,7.366-6.38,7.366c-1.305,0-2.871-0.754-3.683-1.653l-0.116,0.957c-0.029,0.261-0.261,0.348-0.638,0.348l-1.74,0c-0.493,0-0.696-0.232-0.696-0.725l0-18.908c0-0.464,0.116-0.725,0.58-0.783l2.146-0.29c0.116-0.029,0.203-0.029,0.29-0.029c0.29,0,0.493,0.116,0.493,0.58l0,7.134c0.928-0.812,2.32-1.421,3.828-1.421c1.595,0,2.784,0.522,3.712,1.363c1.537,1.363,2.204,3.625,2.204,6.061z M48.372,36.171c0-2.349-0.725-4.495-3.132-4.495c-1.073,0-2.204,0.58-2.987,1.305l0,6.206c0.696,0.783,1.769,1.421,2.842,1.421c2.523,0,3.277-2.175,3.277-4.437z M69.7015,36.113c0,4.176-2.552,7.395-7.076,7.395c-4.727,0-6.902-3.19-6.902-7.424c0-4.176,2.552-7.366,7.076-7.366c4.727,0,6.902,3.132,6.902,7.395z M66.0765,36.113c0-2.378-0.754-4.64-3.306-4.64c-2.581,0-3.422,2.233-3.422,4.553c0,2.378,0.725,4.727,3.306,4.727c2.552,0,3.422-2.262,3.422-4.64z M84.825,42.174c0,0.232-0.145,0.348-0.406,0.464c-1.392,0.638-2.668,0.87-4.205,0.87c-4.466,0-6.931-2.784-6.931-7.25c0-4.495,2.697-7.54,7.192-7.54c1.305,0,2.668,0.261,3.886,0.812c0.232,0.116,0.348,0.174,0.348,0.406c0,0.087-0.029,0.261-0.058,0.348l-0.377,1.537c-0.058,0.261-0.174,0.406-0.348,0.406c-0.087,0-0.203-0.058-0.319-0.116c-0.841-0.348-1.769-0.638-2.784-0.638c-2.494,0-3.915,1.769-3.915,4.611c0,2.784,1.276,4.698,3.77,4.698c1.247,0,2.03-0.232,3.045-0.638c0.087-0.029,0.203-0.087,0.29-0.087c0.174,0,0.29,0.145,0.348,0.348l0.377,1.276c0.058,0.203,0.087,0.377,0.087,0.493z M101.6015,42.58c0,0.435-0.087,0.58-0.464,0.58l-2.552,0c-0.406,0-0.493-0.116-0.493-0.58l0-8.062c0-1.566-0.435-2.726-2.175-2.726c-1.131,0-2.581,0.609-3.48,1.392l0,9.396c0,0.435-0.116,0.58-0.551,0.58l-2.494,0c-0.348,0-0.464-0.145-0.464-0.522l0-19.169c0-0.522,0.232-0.667,0.638-0.725l2.001-0.261c0.116-0.029,0.261-0.029,0.377-0.029c0.319,0,0.493,0.145,0.493,0.551l0,7.279c1.218-1.015,3.045-1.566,4.582-1.566c3.248,0,4.582,2.059,4.582,5.191l0,8.671z M120.64,42.609c0,0.348-0.232,0.551-0.58,0.551l-1.392,0c-1.508,0-2.175-0.725-2.378-1.711l-0.058,0c-0.725,1.073-2.61,2.059-4.205,2.059c-4.089,0-5.945-3.364-5.945-7.134c0-5.017,3.016-7.656,6.264-7.656c1.537,0,2.987,0.696,3.712,1.682l0.058-0.783c0.029-0.319,0.261-0.522,0.609-0.522l2.03,0c0.377,0,0.609,0.203,0.609,0.638l0,10.063c0,0.406,0.058,0.696,0.174,0.841c0.087,0.087,0.203,0.116,0.348,0.116l0.232,0c0.348,0,0.522,0.116,0.522,0.493l0,1.363z M115.855,38.665l0-5.597c-0.58-0.841-1.769-1.479-2.871-1.479c-1.769,0-3.277,1.508-3.277,4.553c0,2.436,0.928,4.495,3.074,4.495c1.421,0,2.639-1.073,3.074-1.972z"/><path fill="#082d47" d="M134.808,38.616c0,2.94-2.548,4.34-5.404,4.34c-1.456,0-3.052-0.42-4.312-0.98c-0.252-0.112-0.336-0.28-0.336-0.448c0-0.084,0.028-0.168,0.056-0.252l0.448-1.428c0.084-0.28,0.224-0.392,0.392-0.392c0.084,0,0.168,0,0.308,0.056c1.232,0.504,2.548,0.868,3.528,0.868c1.232,0,2.072-0.56,2.072-1.484c0-0.784-0.532-1.204-1.68-1.652l-2.212-0.84c-1.596-0.588-2.884-1.82-2.884-3.724c0-2.744,2.576-4.004,5.068-4.004c1.344,0,2.66,0.224,4.06,0.84c0.224,0.112,0.336,0.224,0.336,0.392c0,0.084-0.028,0.168-0.056,0.28l-0.476,1.512c-0.056,0.196-0.196,0.308-0.392,0.308c-0.084,0-0.196-0.028-0.28-0.056c-0.924-0.364-2.128-0.672-3.024-0.672c-1.176,0-1.764,0.644-1.764,1.288c0,0.616,0.308,1.008,1.372,1.428l2.52,1.036c1.484,0.616,2.66,1.764,2.66,3.584z M149.158,41.668c0,0.224-0.14,0.336-0.392,0.448c-1.344,0.616-2.576,0.84-4.06,0.84c-4.312,0-6.692-2.688-6.692-7c0-4.34,2.604-7.28,6.944-7.28c1.26,0,2.576,0.252,3.752,0.784c0.224,0.112,0.336,0.168,0.336,0.392c0,0.084-0.028,0.252-0.056,0.336l-0.364,1.484c-0.056,0.252-0.168,0.392-0.336,0.392c-0.084,0-0.196-0.056-0.308-0.112c-0.812-0.336-1.708-0.616-2.688-0.616c-2.408,0-3.78,1.708-3.78,4.452c0,2.688,1.232,4.536,3.64,4.536c1.204,0,1.96-0.224,2.94-0.616c0.084-0.028,0.196-0.084,0.28-0.084c0.168,0,0.28,0.14,0.336,0.336l0.364,1.232c0.056,0.196,0.084,0.364,0.084,0.476z M166.308,42.088c0,0.336-0.224,0.532-0.56,0.532l-1.344,0c-1.456,0-2.1-0.7-2.296-1.652l-0.056,0c-0.7,1.036-2.52,1.988-4.06,1.988c-3.948,0-5.74-3.248-5.74-6.888c0-4.844,2.912-7.392,6.048-7.392c1.484,0,2.884,0.672,3.584,1.624l0.056-0.756c0.028-0.308,0.252-0.504,0.588-0.504l1.96,0c0.364,0,0.588,0.196,0.588,0.616l0,9.716c0,0.392,0.056,0.672,0.168,0.812c0.084,0.084,0.196,0.112,0.336,0.112l0.224,0c0.336,0,0.504,0.112,0.504,0.476l0,1.316z M161.688,38.28l0-5.404c-0.56-0.812-1.708-1.428-2.772-1.428c-1.708,0-3.164,1.456-3.164,4.396c0,2.352,0.896,4.34,2.968,4.34c1.372,0,2.548-1.036,2.968-1.904z M182.59,41.892c0,0.476-0.168,0.728-0.672,0.728l-2.016,0c-0.504,0-0.672-0.252-0.672-0.728l0-7.616c0-1.54-0.42-2.632-2.128-2.632c-1.092,0-2.436,0.588-3.304,1.344l0,8.932c0,0.476-0.196,0.7-0.672,0.7l-2.044,0c-0.42,0-0.672-0.224-0.672-0.672l0-12.208c0-0.448,0.196-0.7,0.7-0.7l1.82,0c0.392,0,0.644,0.112,0.672,0.532l0.028,0.728c1.288-1.036,2.912-1.624,4.536-1.624c3.136,0,4.424,1.96,4.424,5.012l0,8.204z"/></svg>
